<svg width="25" height="25" viewBox="0 0 25 25" fill="none" xmlns="http://www.w3.org/2000/svg">
<path d="M12.0671 2.41211C14.7869 2.41211 15.1263 2.42212 16.1934 2.47217C17.2595 2.52222 17.9852 2.6894 18.6239 2.93766C19.2846 3.19192 19.8412 3.53628 20.3977 4.09186C20.9068 4.59228 21.3006 5.1976 21.5519 5.86571C21.7992 6.50337 21.9674 7.23013 22.0174 8.29624C22.0645 9.36335 22.0775 9.7027 22.0775 12.4225C22.0775 15.1424 22.0675 15.4817 22.0174 16.5488C21.9674 17.6149 21.7992 18.3407 21.5519 18.9794C21.3014 19.6478 20.9074 20.2533 20.3977 20.7532C19.8972 21.2621 19.2919 21.6559 18.6239 21.9074C17.9862 22.1547 17.2595 22.3228 16.1934 22.3729C15.1263 22.42 14.7869 22.433 12.0671 22.433C9.34723 22.433 9.00788 22.423 7.94077 22.3729C6.87466 22.3228 6.1489 22.1547 5.51024 21.9074C4.84187 21.6566 4.23644 21.2627 3.73639 20.7532C3.22727 20.2529 2.83338 19.6475 2.58219 18.9794C2.33393 18.3417 2.16676 17.6149 2.1167 16.5488C2.06965 15.4817 2.05664 15.1424 2.05664 12.4225C2.05664 9.7027 2.06665 9.36335 2.1167 8.29624C2.16676 7.22913 2.33393 6.50437 2.58219 5.86571C2.83269 5.19719 3.22666 4.5917 3.73639 4.09186C4.23658 3.58256 4.84197 3.18865 5.51024 2.93766C6.1489 2.6894 6.87366 2.52222 7.94077 2.47217C9.00788 2.42512 9.34723 2.41211 12.0671 2.41211ZM12.0671 7.41732C10.7396 7.41732 9.46651 7.94466 8.52785 8.88332C7.58919 9.82198 7.06185 11.0951 7.06185 12.4225C7.06185 13.75 7.58919 15.0231 8.52785 15.9618C9.46651 16.9004 10.7396 17.4278 12.0671 17.4278C13.3945 17.4278 14.6676 16.9004 15.6063 15.9618C16.5449 15.0231 17.0723 13.75 17.0723 12.4225C17.0723 11.0951 16.5449 9.82198 15.6063 8.88332C14.6676 7.94466 13.3945 7.41732 12.0671 7.41732ZM18.5738 7.16706C18.5738 6.8352 18.442 6.51692 18.2073 6.28226C17.9727 6.04759 17.6544 5.91576 17.3225 5.91576C16.9907 5.91576 16.6724 6.04759 16.4377 6.28226C16.2031 6.51692 16.0712 6.8352 16.0712 7.16706C16.0712 7.49893 16.2031 7.8172 16.4377 8.05187C16.6724 8.28653 16.9907 8.41837 17.3225 8.41837C17.6544 8.41837 17.9727 8.28653 18.2073 8.05187C18.442 7.8172 18.5738 7.49893 18.5738 7.16706ZM12.0671 9.41941C12.8635 9.41941 13.6274 9.73581 14.1906 10.299C14.7538 10.8622 15.0702 11.6261 15.0702 12.4225C15.0702 13.219 14.7538 13.9829 14.1906 14.5461C13.6274 15.1093 12.8635 15.4257 12.0671 15.4257C11.2706 15.4257 10.5067 15.1093 9.94354 14.5461C9.38034 13.9829 9.06394 13.219 9.06394 12.4225C9.06394 11.6261 9.38034 10.8622 9.94354 10.299C10.5067 9.73581 11.2706 9.41941 12.0671 9.41941Z" fill="white"/>
</svg>
