<svg width="218" height="218" viewBox="0 0 218 218" fill="none" xmlns="http://www.w3.org/2000/svg">
<path d="M190.839 0.0078125H26.8805C12.106 0.0078125 0.128906 11.9849 0.128906 26.7594V190.718C0.128906 205.492 12.106 217.469 26.8805 217.469H190.839C205.613 217.469 217.59 205.492 217.59 190.718V26.7594C217.59 11.9849 205.613 0.0078125 190.839 0.0078125Z" fill="#11F4BD"/>
<path fill-rule="evenodd" clip-rule="evenodd" d="M116.797 69.5449V109.252C116.797 122.268 127.554 133.025 140.63 133.025C153.706 133.025 164.402 122.268 164.402 109.252V69.5449H180.267V109.252C180.267 131.026 162.403 148.89 140.63 148.89C118.857 148.89 100.922 131.026 100.922 109.252V69.5449H116.787H116.797Z" fill="#0A3556"/>
<path fill-rule="evenodd" clip-rule="evenodd" d="M177.772 157.019C179.261 147.522 179.771 139.724 179.961 134.286C179.961 134.286 180.591 129.757 180.271 109.474L165.176 110.633C165.646 117.461 165.706 125.509 164.836 134.466C164.126 141.753 162.926 148.301 161.567 153.97C165.806 154.759 173.543 156.219 177.782 157.009L177.772 157.019Z" fill="#0A3556"/>
<path fill-rule="evenodd" clip-rule="evenodd" d="M155.291 163.157C150.442 167.205 143.894 169.705 136.726 169.705C129.559 169.705 122.941 167.175 118.062 163.097L100.778 169.855C109.045 179.382 122.101 185.57 136.736 185.57C151.372 185.57 164.308 179.402 172.575 169.905L155.301 163.157H155.291Z" fill="#0A3556"/>
<path fill-rule="evenodd" clip-rule="evenodd" d="M77.2453 111.381C99.1884 111.381 116.943 93.6266 116.943 71.6835C116.943 49.7404 99.1884 31.916 77.2453 31.916C55.3022 31.916 37.5478 49.6104 37.4778 71.5535L37.3379 148.309L53.1529 148.339L53.3728 71.6235C53.3728 58.4576 64.0795 47.821 77.2453 47.821C90.4112 47.821 101.058 58.4576 101.058 71.6935C101.058 84.9293 90.4212 95.506 77.2453 95.506H69.2678V111.401H77.2453V111.381Z" fill="#0A3556"/>
</svg>
