<svg width="21" height="17" viewBox="0 0 21 17" fill="none" xmlns="http://www.w3.org/2000/svg">
<path d="M20.0811 2.70326C19.5651 3.35538 18.9413 3.92423 18.2339 4.38784C18.2339 4.55819 18.2339 4.72854 18.2339 4.90836C18.2395 8.00191 16.9352 10.9682 14.6133 13.1423C12.2913 15.3164 9.14602 16.5164 5.88246 16.4733C3.99573 16.4793 2.13316 16.0711 0.440653 15.2809C0.349393 15.2431 0.290532 15.1576 0.290878 15.0632V14.9591C0.290878 14.8232 0.407109 14.713 0.550488 14.713C2.4051 14.6551 4.19355 14.0459 5.6628 12.9716C3.98411 12.9396 2.47373 11.9975 1.77864 10.5489C1.74353 10.4697 1.75446 10.379 1.80749 10.3094C1.86051 10.2398 1.94796 10.2015 2.03825 10.2082C2.54844 10.2568 3.06372 10.2118 3.55597 10.0757C1.70284 9.71125 0.310425 8.25377 0.111149 6.46991C0.104066 6.38433 0.144546 6.30145 0.217964 6.25119C0.291382 6.20093 0.387127 6.19057 0.470608 6.22385C0.967906 6.43173 1.50474 6.54122 2.04823 6.54562C0.424458 5.53595 -0.276906 3.61551 0.340803 1.87043C0.404565 1.70085 0.557754 1.57559 0.744074 1.54065C0.930395 1.50572 1.12236 1.56628 1.24944 1.70008C3.44062 3.90942 6.45134 5.22595 9.6468 5.37209C9.56495 5.06267 9.52469 4.74469 9.52698 4.4257C9.55687 2.75306 10.6493 1.26305 12.2928 0.65322C13.9363 0.0433913 15.8057 0.43444 17.0257 1.64329C17.8573 1.4932 18.6613 1.22856 19.4121 0.857784C19.4671 0.825256 19.5368 0.825256 19.5918 0.857784C19.6262 0.909909 19.6262 0.97601 19.5918 1.02814C19.2282 1.81705 18.6138 2.47874 17.8345 2.92093C18.517 2.84595 19.1874 2.69343 19.8315 2.46666C19.8857 2.43169 19.957 2.43169 20.0112 2.46666C20.0566 2.48635 20.0906 2.524 20.1041 2.56959C20.1175 2.61518 20.1091 2.66407 20.0811 2.70326Z" fill="white"/>
</svg>
