<svg width="888" height="236" viewBox="0 0 888 236" fill="none" xmlns="http://www.w3.org/2000/svg">
<path fill-rule="evenodd" clip-rule="evenodd" d="M481.127 174.125C449.966 174.125 424.754 148.913 424.754 117.753C424.754 86.593 449.966 61.291 481.127 61.291C512.287 61.291 537.499 86.4031 537.589 117.563V174.115H515.026V117.653C515.026 98.9591 499.821 83.8539 481.127 83.8539C462.432 83.8539 447.327 98.9591 447.327 117.753C447.327 136.547 462.432 151.553 481.127 151.553H492.453V174.115H481.127V174.125Z" fill="#0A3556"/>
<path fill-rule="evenodd" clip-rule="evenodd" d="M555.917 8.77637L578.48 8.83635V119.721L617.378 61.0599H643.439L610.01 111.754L645.519 174.124H619.267L596.604 132.047L578.48 159.579V174.124H555.917V8.77637Z" fill="#0A3556"/>
<path fill-rule="evenodd" clip-rule="evenodd" d="M716.889 174.124C685.729 174.124 660.517 148.932 660.427 117.692V8.77637L682.99 8.94631V60.9699H716.889V83.6028H682.99V117.592C682.99 136.336 698.195 151.491 716.889 151.491H728.126V174.124H716.889Z" fill="#0A3556"/>
<path fill-rule="evenodd" clip-rule="evenodd" d="M764.632 61.4824V117.855C764.632 136.329 779.907 151.604 798.472 151.604C817.036 151.604 832.221 136.329 832.221 117.855V61.4824H854.754V117.855C854.754 148.775 829.402 174.127 798.482 174.127C767.561 174.127 742.109 148.775 742.109 117.855V61.4824H764.642H764.632Z" fill="#0A3556"/>
<path fill-rule="evenodd" clip-rule="evenodd" d="M851.186 185.674C853.306 172.189 854.025 161.112 854.285 153.405C854.285 153.405 855.185 146.977 854.735 118.176L833.302 119.825C833.962 129.522 834.052 140.949 832.812 153.665C831.802 164.011 830.093 173.298 828.164 181.366C834.182 182.495 845.158 184.555 851.186 185.685V185.674Z" fill="#0A3556"/>
<path fill-rule="evenodd" clip-rule="evenodd" d="M819.259 194.393C812.371 200.142 803.084 203.691 792.897 203.691C782.711 203.691 773.324 200.102 766.396 194.313L741.854 203.9C753.6 217.426 772.134 226.213 792.897 226.213C813.661 226.213 832.045 217.456 843.781 203.97L819.259 194.383V194.393Z" fill="#0A3556"/>
<path fill-rule="evenodd" clip-rule="evenodd" d="M359.154 174.046C390.315 174.046 415.527 148.834 415.527 117.674C415.527 86.5139 390.315 61.2119 359.154 61.2119C327.994 61.2119 302.782 86.324 302.692 117.484L302.492 226.46L324.945 226.5L325.265 117.574C325.265 98.88 340.47 83.7748 359.164 83.7748C377.858 83.7748 392.964 98.88 392.964 117.674C392.964 136.468 377.858 151.473 359.164 151.473H347.838V174.036H359.164L359.154 174.046Z" fill="#0A3556"/>
<path d="M223.839 9.00781H59.8805C45.106 9.00781 33.1289 20.9849 33.1289 35.7594V199.718C33.1289 214.492 45.106 226.469 59.8805 226.469H223.839C238.613 226.469 250.59 214.492 250.59 199.718V35.7594C250.59 20.9849 238.613 9.00781 223.839 9.00781Z" fill="#11F4BD"/>
<path fill-rule="evenodd" clip-rule="evenodd" d="M149.797 78.5449V118.252C149.797 131.268 160.554 142.025 173.63 142.025C186.706 142.025 197.402 131.268 197.402 118.252V78.5449H213.267V118.252C213.267 140.026 195.403 157.89 173.63 157.89C151.857 157.89 133.922 140.026 133.922 118.252V78.5449H149.787H149.797Z" fill="#0A3556"/>
<path fill-rule="evenodd" clip-rule="evenodd" d="M210.772 166.019C212.261 156.522 212.771 148.724 212.961 143.286C212.961 143.286 213.591 138.757 213.271 118.474L198.176 119.633C198.646 126.461 198.706 134.509 197.836 143.466C197.126 150.753 195.926 157.301 194.567 162.97C198.806 163.759 206.543 165.219 210.782 166.009L210.772 166.019Z" fill="#0A3556"/>
<path fill-rule="evenodd" clip-rule="evenodd" d="M188.291 172.157C183.442 176.205 176.894 178.705 169.726 178.705C162.559 178.705 155.941 176.175 151.062 172.097L133.778 178.855C142.045 188.382 155.101 194.57 169.736 194.57C184.372 194.57 197.308 188.402 205.575 178.905L188.301 172.157H188.291Z" fill="#0A3556"/>
<path fill-rule="evenodd" clip-rule="evenodd" d="M110.245 120.381C132.188 120.381 149.943 102.627 149.943 80.6835C149.943 58.7404 132.188 40.916 110.245 40.916C88.3022 40.916 70.5478 58.6104 70.4778 80.5535L70.3379 157.309L86.1529 157.339L86.3728 80.6235C86.3728 67.4576 97.0795 56.821 110.245 56.821C123.411 56.821 134.058 67.4576 134.058 80.6935C134.058 93.9293 123.421 104.506 110.245 104.506H102.268V120.401H110.245V120.381Z" fill="#0A3556"/>
</svg>
